<svg xmlns="http://www.w3.org/2000/svg" width="120" height="66" viewBox="0 0 120 66"><path fill-rule="evenodd" clip-rule="evenodd" fill="#fff" d="M116 66h-112c-2.209 0-4-1.791-4-4v-58c0-2.209 1.791-4 4-4h112c2.209 0 4 1.791 4 4v58c0 2.209-1.792 4-4 4zm-8-62h-96v58h96v-58z"/><path fill-rule="evenodd" clip-rule="evenodd" d="M79.006 32l-6.006 7.006-6.007-7.006h4.144c-.507-5.709-5.297-10.188-11.137-10.188-6.179 0-11.188 5.009-11.188 11.188s5.009 11.188 11.188 11.188v2.812c-7.732 0-14-6.268-14-14s6.268-14 14-14c7.395 0 13.435 5.737 13.949 13h5.057z"/></svg>