<svg xmlns="http://www.w3.org/2000/svg" width="28" height="28" viewBox="0 0 28 28" overflow="visible"><path fill-rule="evenodd" clip-rule="evenodd" fill="#000" d="M13.998 0c-7.731 0-13.998 6.267-13.998 13.998s6.267 13.998 13.998 13.998 13.998-6.267 13.998-13.998-6.267-13.998-13.998-13.998zm12.383 13.054h-6.199c-.088-1.383-.375-2.701-.763-3.945 1.608-.677 3.057-1.648 4.293-2.843 1.507 1.892 2.476 4.23 2.669 6.788zm-3.726-7.947c-1.083 1.053-2.349 1.915-3.757 2.52-1.012-2.53-2.407-4.621-3.453-5.965 2.795.325 5.298 1.583 7.21 3.445zm-8.657 13.452c-1.313 0-2.577.198-3.782.536-.469-1.374-.812-2.892-.882-4.496h9.376c-.07 1.609-.413 3.132-.882 4.509-1.219-.347-2.499-.549-3.83-.549zm-4.649-5.505c.081-1.209.313-2.364.629-3.444 1.275.382 2.621.601 4.021.601 1.412 0 2.769-.221 4.054-.609.323 1.082.561 2.24.644 3.453h-9.348zm4.649-10.877c.032 0 2.149 2.393 3.54 5.937-1.124.334-2.308.526-3.54.526-1.223 0-2.399-.19-3.515-.519 1.367-3.548 3.455-5.944 3.515-5.944zm-1.487-.509c-1.052 1.342-2.443 3.425-3.454 5.943-1.392-.604-2.644-1.46-3.715-2.503 1.903-1.853 4.39-3.108 7.169-3.44zm-8.228 4.599c1.226 1.184 2.659 2.15 4.251 2.826-.391 1.249-.68 2.572-.769 3.961h-6.151c.193-2.558 1.162-4.896 2.669-6.787zm3.471 8.332c.074 1.768.466 3.448 1.017 4.986-1.526.616-2.922 1.482-4.126 2.565-1.778-2.042-2.909-4.663-3.047-7.551h6.156zm-2.015 8.672c1.057-.94 2.283-1.69 3.616-2.228.992 2.229 2.251 4.07 3.21 5.294-2.608-.3-4.967-1.408-6.826-3.066zm8.259 2.548c-.004 0-1.839-2.09-3.209-5.253 1.026-.274 2.097-.436 3.209-.436 1.13 0 2.218.167 3.259.449-1.367 3.156-3.202 5.24-3.259 5.24zm1.475.511c.953-1.225 2.188-3.064 3.158-5.292 1.337.539 2.566 1.289 3.625 2.231-1.849 1.649-4.192 2.754-6.783 3.061zm7.878-4.181c-1.21-1.088-2.613-1.957-4.147-2.573.537-1.537.919-3.213.991-4.978h6.204c-.14 2.889-1.27 5.51-3.048 7.551z"/></svg>