<?xml version="1.0" encoding="utf-8"?>
<!-- Generator: Adobe Illustrator 16.0.0, SVG Export Plug-In . SVG Version: 6.00 Build 0)  -->
<!DOCTYPE svg PUBLIC "-//W3C//DTD SVG 1.0//EN" "http://www.w3.org/TR/2001/REC-SVG-20010904/DTD/svg10.dtd">
<svg version="1.0" id="Layer_1" xmlns="http://www.w3.org/2000/svg" xmlns:xlink="http://www.w3.org/1999/xlink" x="0px" y="0px"
	 width="160px" height="60px" viewBox="0 0 160 60" enable-background="new 0 0 160 60" xml:space="preserve">
<g id="Layer_x0020_1">
	<path fill="#E52056" d="M67.043,3.317v12.81c0,0.327-0.04,1.227,0.08,1.473c0,0.083,0,0.042,0.041,0.164
		c0,0.164-0.041,0.368,0,0.532c0.04,0.164,0.04,0.164,0.04,0.328c0.04,0.163,0-0.041,0.04,0.124c0.041,0.163,0.041,0.45,0.161,0.777
		c0.04,0.082,0.04,0.082,0.04,0.164c0.04,0.041,0.04,0.082,0.04,0.164l0.12,0.45l0,0l0.161,0.409c0.04,0.082,0.04,0.164,0.08,0.287
		c0.041,0.081,0.081,0.163,0.121,0.246c0.081,0.245,0.442,1.063,0.602,1.268l0.361,0.573c0.08,0.082,0.04,0.082,0.08,0.124
		l0.481,0.613c0.201,0.205,0.361,0.45,0.562,0.614c0.081,0.082,0.12,0.123,0.201,0.164l1.323,1.105
		c0.081,0.042,0.081,0.042,0.161,0.042c0.041,0.041,0.12,0.122,0.2,0.163c0.081,0.042,0.161,0.082,0.24,0.123
		c0.121,0.082,0.121,0.082,0.241,0.164l0.481,0.246c0.041,0.041,0.081,0.041,0.121,0.082c0.321,0.123,0.762,0.328,1.042,0.409
		l2.206,0.614c0.161,0.041,0.481,0.123,0.763,0.164c0.16,0,0.04,0,0.16,0.041l0.682,0.082c0.321,0,0.401,0.042,0.682,0.042
		l3.168-0.082c0.521-0.123,0.441-0.082,0.643-0.123l1.162-0.328c0.08-0.041,0.12-0.041,0.201-0.082l0.561-0.205
		c0.08-0.041,0.08-0.041,0.161-0.082c0.118-0.082,0.241-0.122,0.36-0.205c0.041,0,0.08-0.041,0.16-0.082l0.321-0.205
		c0.12-0.041,0.08,0,0.2-0.082c0.039-0.041,0.08-0.041,0.121-0.081c0.119-0.165-0.082-0.041,0.159-0.123
		c0.281-0.164,0.763-0.778,1.003-1.064l0.4-0.614c0.08-0.082,0.041,0.041,0.08-0.123c0.041-0.041,0.041-0.082,0.041-0.123
		c0.041-0.041,0.041-0.041,0.08-0.082l0.16-0.368c0.041-0.082,0.041-0.082,0.041-0.164c0.04-0.246,0.159-0.368,0.2-0.614
		c0.039-0.082,0-0.082,0.039-0.205c0.04-0.123,0.04-0.082,0.04-0.246c0-0.204,0.081-0.163,0.081-0.45c0-0.328,0.121-0.45,0-0.941
		l-0.201-1.351l-0.319-0.736c0-0.041-0.041-0.083-0.08-0.164l-0.281-0.491c-0.161-0.328-0.441-0.614-0.682-0.86
		c-0.12-0.122-0.12-0.163-0.241-0.286c-0.2-0.123-0.401-0.327-0.562-0.45c-0.16-0.082-0.28-0.205-0.441-0.328
		c-0.16-0.041-0.199-0.122-0.32-0.204c-0.281-0.083-0.441-0.246-0.883-0.41c-0.28-0.123-0.803-0.409-1.082-0.45l-0.802-0.245
		c-0.241-0.082-0.481-0.123-0.683-0.164l-0.32-0.082c-0.12-0.042-0.08-0.042-0.241-0.042l-1.363-0.409
		c-0.241-0.081-0.722-0.245-0.883-0.409l-0.321-0.205c-0.361-0.286-0.361-0.451-0.361-0.859c0-0.123,0-0.246,0.041-0.328
		c0.04-0.205,0.2-0.409,0.4-0.532l0.401-0.287c0.121-0.081,0.321-0.123,0.481-0.164c0.4-0.204,0.601-0.163,1.123-0.163
		c0.401,0,0.923,0,1.202,0.081c0.281,0.082,0.762,0.246,1.003,0.328c0.081,0.041,0.121,0.082,0.2,0.124
		c0.322,0.082,0.963,0.49,1.244,0.695c0.08,0.082,0.119,0.123,0.201,0.164c0.239,0.164,0.439,0.246,0.721,0.287
		c0.24,0.041,0.08,0.082,0.521,0.082c0.32,0,0.642-0.123,0.883-0.286c0.24-0.123,0.44-0.287,0.641-0.532
		c0.121-0.123,0.361-0.737,0.402-0.982c0.119-0.614-0.201-1.432-0.644-1.801c-0.039-0.041-0.039-0.041-0.079-0.082
		c-0.039-0.041,0,0-0.039-0.081c-0.281-0.246-1.045-0.656-1.405-0.901L84.85,8.515c-0.12-0.041-0.16-0.124-0.283-0.164L84.327,8.27
		c-0.28-0.164-0.762-0.328-1.083-0.409c-0.121-0.041-0.199-0.082-0.32-0.123c-0.28-0.082-0.521-0.082-0.802-0.164
		c-0.603-0.164-1.284-0.205-1.925-0.205c-0.2,0-0.602,0-0.722,0.042c-0.24,0.041-0.441,0.041-0.682,0.082
		c-0.321,0.123-0.521,0.164-0.882,0.287l-1.083,0.409c-0.04,0.041-0.08,0.041-0.121,0.082c-0.16,0.122-0.04,0.041-0.241,0.122
		c-0.16,0.083-0.2,0.164-0.32,0.246c-0.201,0.124-0.321,0.206-0.441,0.328c-0.121,0.123-0.161,0.082-0.241,0.164
		c-0.2,0.164-0.361,0.451-0.522,0.613c-0.12,0.164-0.2,0.287-0.32,0.451c-0.161,0.246-0.321,0.491-0.401,0.777
		c-0.081,0.204-0.201,0.369-0.24,0.655c-0.041,0.163,0,0.081-0.081,0.163c-0.08,0.205-0.12,0.45-0.12,0.655v0.573
		c-0.04,0.082-0.08,0.041-0.08,0.123c0,0.246,0.08,0.082,0.08,0.327c0,0.614,0,0.287,0.041,0.573c0.08,0.287,0,0.164,0.12,0.532
		c0.121,0.287,0.041,0.246,0.201,0.614l0.281,0.573c0.081,0.123,0.04,0.123,0.16,0.246c0.12,0.123,0.081,0.123,0.161,0.245
		c0.04,0.083,0.16,0.165,0.2,0.205c0.161,0.164,0.201,0.327,0.402,0.45c0.16,0.082,0.281,0.246,0.481,0.368
		c0.12,0.041,0.12,0.082,0.201,0.164c0.08,0.082,0.16,0.122,0.24,0.163c0.121,0.042,0.161,0.083,0.281,0.164l0.682,0.328
		c0.24,0.123,0.48,0.245,0.722,0.327c0.401,0.123,0.802,0.287,1.243,0.368c0.12,0.042,0.041,0.042,0.16,0.083l0.682,0.124
		c0.081,0.04,0.04,0.04,0.161,0.04l2.447,0.86c0.159,0.082,0.401,0.205,0.479,0.328c0.281,0.246,0.604,0.532,0.684,0.982
		c0.08,0.45,0.039,0.655-0.121,1.064c-0.08,0.246-0.361,0.532-0.563,0.655l-0.359,0.246c-0.08,0.042-0.08,0.042-0.16,0.082
		c-0.281,0.122-0.643,0.246-0.923,0.287c-0.802,0.163-0.722,0.082-1.283,0.163c-0.121,0-0.081,0.041-0.161,0.041
		c-0.08,0.042-0.241-0.041-0.361-0.041c-0.12,0-0.281,0-0.401,0.041c-0.28,0-0.121-0.041-0.321-0.041c-0.241-0.041-0.561,0-0.842,0
		c-0.12-0.041-0.16-0.082-0.28-0.082c-0.2,0-0.24,0-0.361-0.041c-0.201-0.041-0.521-0.041-0.722-0.124l-1.002-0.245
		c-0.24-0.042-1.042-0.369-1.323-0.533l-0.041-0.041l-0.32-0.164c-0.28-0.123-0.481-0.327-0.762-0.532
		c-0.08-0.041-0.161-0.123-0.241-0.164l-0.2-0.204c-0.081-0.123-0.161-0.164-0.281-0.327l-0.321-0.328
		c-0.081-0.082-0.081-0.123-0.161-0.246c-0.08-0.123-0.121-0.123-0.2-0.245l-0.08-0.205c-0.122-0.164-0.201-0.409-0.321-0.614
		l-0.161-0.451c-0.12-0.286-0.16-0.695-0.24-1.023c0-0.123,0-0.082-0.041-0.164c-0.121-0.614-0.08-2.947-0.08-3.683V7.574
		c0-0.327-0.041-1.391,0.041-1.637c0.2-0.409,0.04-0.613,0.601-0.695c0.161,0,0.12-0.082,0.401-0.082h10.105
		c0.24,0,0.16,0.041,0.361,0.041l0.882,0.082c0.12,0,0,0.041,0.161,0.041l0.722,0.164c0.118,0,0.079,0.041,0.2,0.041
		c0.32,0.041,0.562,0.205,0.881,0.246c0.201,0.042,0.363,0.164,0.522,0.205c0.36,0.122,0.722,0.327,1.083,0.491
		c0.039,0,0.039,0.041,0.08,0.041l0.201,0.123c0.16,0.082,0.319,0.205,0.48,0.245l0.802,0.573c0.562,0.41,1.283,0.982,1.725,1.473
		c0.12,0.123,0.241,0.205,0.321,0.369l0.521,0.614c0.04,0.082,0.04,0.082,0.08,0.164l0.32,0.409c0.121,0.123,0.24,0.369,0.361,0.533
		c0.04,0.082,0,0.082,0.04,0.163l0.2,0.246c0.201,0.41,0.562,1.023,0.682,1.433l0.643,2.128c0.039,0.082,0.039,0.041,0.039,0.164
		c0.041,0.082,0,0.163,0.041,0.204c0.12,0.532,0.079,0.696,0.12,0.859c0.039,0.164,0.039,0.082,0.039,0.369
		c0,0.245-0.039,0.491,0,0.695c0.041,0.205,0.081,0,0.081,0.164c-0.04,0.655-0.04,0.286-0.081,0.572
		c-0.039,0.287,0.081,0.614,0,0.942c-0.039,0.204-0.039,0.042-0.039,0.368c0,0.164-0.12,0.45-0.12,0.614
		c-0.041,0.041,0,0.123-0.041,0.164c0,0.205,0,0.082-0.039,0.205c0,0.123,0,0.123-0.041,0.246l-0.319,1.105
		c-0.082,0.205-0.082,0.368-0.162,0.491c-0.079,0.205-0.12,0.45-0.24,0.654c-0.04,0.082-0.12,0.205-0.161,0.327
		c-0.08,0.246-0.199,0.492-0.36,0.737l-0.801,1.269c-0.081,0.082-0.041,0-0.121,0.123l-0.201,0.286
		c-0.16,0.246-0.642,0.737-0.841,0.982c-0.201,0.163-0.402,0.409-0.603,0.573c-0.121,0.082-0.121,0.082-0.241,0.205
		c-0.12,0.123-0.12,0.123-0.279,0.205l-0.362,0.287c-0.04,0.041-0.08,0.082-0.119,0.122l-2.327,1.352
		c-0.119,0.041-0.199,0.081-0.36,0.123c0,0-0.12,0.04-0.159,0.082c-0.441,0.204-1.203,0.41-1.725,0.491
		C84.086,30,84.006,30,83.926,30l-0.36,0.082c-0.161,0-0.201,0.042-0.36,0.042l-0.803,0.122c-0.121,0-0.32,0-0.441,0h-5.935
		c-0.481,0-1.002,0.165-1.364,0.491c-0.281,0.246-0.562,0.573-0.642,0.982c0,0.122-0.04,0.041-0.04,0.163l-0.041,0.205
		c-0.08,0.164-0.04,0.409,0,0.531l0.081,0.451c0.04,0.164,0.16,0.245,0.201,0.368c0.2,0.327,0.682,0.777,1.083,0.859
		c0.12,0.041,0.12,0.041,0.201,0.081c0.401,0.123,0.762,0.082,1.123,0.082c0.481,0,5.454,0.041,5.774-0.04c0.08,0,0.04,0,0.16-0.042
		c0.16,0,0.361,0,0.521,0l0.883-0.122c0.119-0.041,0.039-0.041,0.201-0.041c0.039-0.041,0.159,0,0.239-0.041l0.401-0.082
		c0.16-0.041,0.28-0.081,0.441-0.081c0.16-0.042,0.401-0.123,0.561-0.164c0.082-0.041,0.121-0.041,0.201-0.041l0.361-0.123
		c0,0,0,0,0.039,0l0.963-0.368h0.041l1.202-0.49c0.281-0.124,0.522-0.286,0.803-0.451c0,0,0,0,0.04,0v-0.041c0,0,0,0,0.039,0
		l1.926-1.268c0.04-0.042,0.081-0.042,0.12-0.082l0.16-0.124c0.321-0.245,0.562-0.448,0.843-0.735
		c0.24-0.246,0.562-0.491,0.801-0.737c0.08-0.123,0.161-0.164,0.242-0.246c0.08-0.124,0.119-0.205,0.2-0.287
		c0.08-0.122,0.2-0.164,0.239-0.286l1.004-1.351c0.159-0.164,0.36-0.532,0.481-0.737l0.481-0.777c0.08-0.123,0-0.082,0.08-0.204
		l0.4-0.819l0,0l0.081-0.246c0.159-0.327,0.319-0.696,0.44-1.064l0.36-1.146c0.041-0.123,0-0.123,0.041-0.205
		c0.119-0.246,0.2-0.777,0.28-1.064l0.08-0.696c0-0.164,0.04-0.164,0.079-0.45c0-0.123,0-0.123,0.041-0.246l0.081-0.9
		c0-0.164,0-0.369,0-0.532c0-0.041,0-0.204,0-0.204c0.039-0.124,0.08-0.246,0-0.41c-0.041-0.164,0-0.982,0-1.187
		c-0.041-0.246-0.122-0.655-0.122-0.9l-0.239-1.351c-0.081-0.246-0.081-0.573-0.2-0.818c0-0.041-0.081-0.164-0.081-0.164
		c-0.04-0.246-0.04-0.368-0.16-0.614l-0.682-1.882c-0.081-0.082-0.04,0-0.081-0.123c-0.039-0.082-0.039-0.123-0.079-0.204
		L95.957,9.62c-0.08-0.123-0.08-0.205-0.16-0.328l-0.2-0.369c-0.041-0.081-0.041-0.041-0.121-0.123
		c-0.04-0.082-0.12-0.204-0.2-0.327l-0.281-0.45c-0.159-0.246-0.32-0.45-0.481-0.655l-1.163-1.35
		c-0.08-0.082-0.118-0.123-0.239-0.246c-0.08-0.082-0.161-0.164-0.242-0.246l-0.801-0.736c-0.201-0.205-0.481-0.327-0.722-0.532
		L90.744,3.85c-0.08-0.082-0.041-0.082-0.12-0.164c-0.121-0.04-0.241-0.082-0.321-0.163c-0.081-0.083,0-0.083-0.12-0.123
		c-0.32-0.124-0.201-0.164-0.521-0.246c-0.081-0.041-0.2-0.164-0.321-0.204c-0.521-0.246-1.003-0.532-1.563-0.737l-0.16-0.082
		l-0.161-0.082l-0.562-0.205c-0.039,0-0.039,0-0.079,0l-0.481-0.164c-0.08,0-0.161-0.082-0.201-0.082l-1.003-0.246
		c-0.199-0.082-0.48-0.042-0.681-0.123c-0.2-0.083-1.124-0.205-1.325-0.205c-0.199,0-0.52,0.041-0.721-0.041
		c-0.24-0.083-11.389,0-12.672,0c-0.401,0-0.481-0.042-0.882,0.041c-0.281,0.041-0.44,0.041-0.681,0.205
		c-0.201,0.123-0.361,0.123-0.563,0.409c-0.08,0.083-0.04,0.122-0.12,0.205c-0.16,0.164-0.241,0.45-0.361,0.737
		C67.083,2.786,67.043,3.072,67.043,3.317z"/>
	<path fill="#051380" d="M38.089,54.759l1.083-0.573c0.481-0.245,0.722-0.736,0.882-0.859c0.361,0.123-0.08,0.081,0.361,0.123
		c0.401-0.287,0.16-0.369,0.722-0.408l1.845-0.656c0.561-0.204,0.561-0.123,1.042-0.082c0.4-0.613,0.201-0.286,0.922-0.573
		c0.321-0.162,0.803-0.327,1.204-0.327c0.682,0.9,0.24,1.473-0.602,2.129c-1.124,0.9-1.203,0.654-1.605,0.9
		c-0.32,0.244-0.761,0.409-1.202,0.491c-0.481,0.081-0.321,0.081-0.642,0.244C42.059,55.209,38.53,55.863,38.089,54.759z
		 M52.125,51.813c0-0.491,0.321-0.982,0.602-1.229c0.161-0.123,0.401-0.327,0.601-0.368C55.414,50.012,52.967,51.729,52.125,51.813z
		 M58.06,50.216c0.161-1.31,0.602-1.351,1.284-1.677c0.12-0.042,0.2-0.082,0.281-0.124c0.441-0.204,0.241,0.082,0.32-0.123
		c0-0.04,0.041,0,0.041-0.04l-0.161,0.45c-0.281,0.654-0.762,1.063-1.363,1.391C58.221,50.257,58.421,50.216,58.06,50.216z
		 M84.527,40.968c0.322-1.024,1.043-2.824,0.883-4.134c-1.003-0.532-0.962,0.941-1.162,1.719c-0.361,1.351-1.365,3.765-2.287,4.83
		c0,0-0.12,0.122-0.079-0.205c0.04-0.246,0-0.042,0.079-0.164c0.121-0.164,0.201,0.164,0.161-0.451h-0.401
		c-0.04,0.124-0.04,0.247-0.04,0.329c0,0.122,0,0-0.04,0.163c-0.563,1.31-0.803,0.941-1.565,1.678
		c-0.4,0.327-0.481,0.205-0.481-0.328c0.161-0.368,0,0,0.361-0.285c0.041-0.45-0.12-0.164-0.08-0.492
		c0-0.369,0.481-1.064,0.602-1.351c0.641-1.514,0.079-0.858,1.323-1.351c0-0.9-0.04-0.449-0.48-1.022
		c0.24-0.245-0.08-0.164,0.32-0.491L81.6,38.757c-0.039-0.286-0.24-0.327-0.48-0.368c-0.48,0.245-0.842,1.393-0.922,2.047
		c-0.241,0-0.762,0.122-1.002,0.163c-0.36,0.123-0.642,0.083-1.002,0.204c-0.321,0.082-0.562,0.246-0.842,0.369
		c-0.442,0.164-0.361,0.041-0.763,0.368c0.041,0.49,0.12,0.573,0.642,0.531c0.48-0.041,1.082-0.204,1.563-0.368
		c0.201-0.08,0.642-0.122,0.883-0.122c-0.121,0.49-0.322,0.695-0.481,1.146c-0.161,0.328-0.401,0.778-0.601,1.022
		c-0.121,0.164-0.121,0.164-0.241,0.329c-0.08,0.122-0.121,0.122-0.241,0.245c-0.28,0.368-0.642,0.736-1.042,1.104
		c-0.28,0.245-0.04,0.041-0.28,0.082c-0.361,0.041-0.683,0.45-1.083,0.45c0.161-1.187,1.443-1.964,1.123-2.742
		c-0.481-0.163-0.682,0.123-1.203,0.123c-0.201-0.409-0.201-0.327-0.442-0.573c-0.32-0.205-1.724-0.041-1.083,1.105
		c0.201,0.367,0.161-0.164,0.201,0.491l0.321,0.122c-0.08,0.532-0.441,0.9-0.762,1.146c-0.12,0.124-0.161,0.165-0.281,0.246
		c-0.041,0.041-0.201,0.164-0.281,0.204c-0.24,0.124-0.401,0.246-0.682,0.287c0.161-0.491,0.481-0.9,0.722-1.474
		c0.081-0.245,0.12-0.245-0.041-0.491c-0.28-0.285-0.561,0-0.802,0.123c-1.163-0.654-1.684,0.123-2.166,0.778
		c-0.642,0.818-1.042,1.063-0.922,2.25c-0.441,0-0.963,0.49-1.083-0.04c-0.04-0.205,0.081-0.328,0.121-0.532
		c0.241-0.941,0.361-2.414-0.922-1.842c0.121-0.286-0.041,0,0.121-0.327c0.04-0.082,0.08-0.164,0.08-0.205
		c0.562-0.94,0.883-2.251,1.204-2.865c0.08-0.163,0.2-0.204,0.32-0.285c-0.04-0.533-0.241-0.287,0-0.533
		c0-0.531,0.041-0.654-0.561-0.613c-0.321,0.164-0.642,1.391-0.802,1.718c-0.241,0.532-0.682,1.679-1.003,2.089
		c-0.12,0.204-0.12,0.204-0.24,0.408l-0.883,1.555c-0.241,0.41-0.281,0.287-0.601,0.656c-0.441-0.369-0.361-0.124-0.402-0.083
		c0.041,0.328,0.081,0.204,0.281,0.328c-0.281,0.162-0.521,0.449-0.802,0.695c-0.08,0.041-0.321,0.287-0.361,0.287
		c-0.201,0.122-0.361-0.124-0.562,0.163l-0.521,0.491c-0.201,0.123-0.481,0.286-0.722,0.327c-0.241-0.286-0.241-0.368,0-0.776
		l0.842-1.474c0.481-0.655,2.005-3.274,1.805-3.848c-0.562-0.695-1.043,0.123-1.323,0.573l-1.283,1.964
		c-0.04,0.123-0.121,0.369-0.201,0.45c-0.28,0.532-0.441,1.146-0.722,1.76c-0.201,0.449-0.04,0.614-0.481,0.818
		c0-0.369,0.04-0.736-0.201-0.899c-0.401-0.328-1.042-0.287-1.483-0.041c-0.441,0.286-0.241,0.204-0.481,0.531
		c-0.241,0.409-1.604,0.737-1.203,2.701c-1.604,0.123-1.845,0.123-0.842-1.391c0.281-0.451,0.602-0.819,0.842-1.311
		c0.2-0.49,1.404-2.537,1.283-2.906c-0.12-0.204-0.2-0.326-0.561-0.285c-0.281,0.285-0.161,0.327-0.401,0.654
		c-1.002,1.433-1.243,2.251-1.924,3.233c-0.281,0.368-0.441,0.899-0.722,1.268c-0.12-0.244-0.16-0.409-0.36-0.572
		c-0.521-0.41-1.003-0.123-1.524,0c-0.322,0.081-1.003,0.532-1.204,0.737c-0.441,0.654-0.922,1.227-0.642,2.127
		c-0.401,0.287-0.602,0.328-1.083,0.328c-0.521,0-0.682,0.204-1.123-0.164c0.08-0.245,0.161-0.45,0.321-0.613
		c0.601-0.736,0.802-0.86,0.642-1.965c-0.481-0.327-0.602-0.287-1.284-0.122c-0.361,0.081-1.805,0.49-2.125,0.49
		c-0.4,0-0.923-0.409-2.166-0.409c-0.722,0-0.922,0.082-1.604,0.123c-0.802,0.082-3.85,0.859-4.17,0.817
		c0.761-0.448,1.363-0.654,1.965-0.981c0.762-0.491,2.527-1.104,3.449-1.392c0.201-0.082,0.441-0.245,0.642-0.328l1.524-0.53
		c0.802-0.205,2.405-0.942,3.528-1.27l1.203-0.327c0.281-0.082,0.121-0.041,0.321-0.163c0.802-0.409,2.366-0.737,2.927-0.982
		c0.481-0.204,0.922-0.369,1.404-0.409c0.16,0,0.24-0.041,0.361-0.124l0.281-0.204c0.441-0.205,1.123-0.245,1.564-0.409l0.642-0.244
		c0.882-0.533,1.965-0.533,2.727-1.229l-0.08-0.614c-0.441-0.122-0.722,0.041-1.123,0.163l-0.882,0.368
		c-0.602,0.329-1.364,0.451-2.005,0.615l-2.567,0.9c-1.443,0.244-4.772,1.637-6.336,2.169c-1.644,0.531-3.329,1.269-4.973,1.841
		c-0.802,0.287-1.564,0.736-2.366,0.982c-0.241,0.082-0.441,0.164-0.682,0.245l-4.893,1.965c-0.24,0.082-0.401,0.163-0.602,0.245
		l-3.649,1.433c-0.762,0.287-1.604,0.778-2.366,1.064l-5.494,2.209c-0.201,0.082-0.441,0.164-0.602,0.246
		c-0.321,0.123-0.842,0.49-1.203,0.327c0-0.083,0.08-0.083,0.201-0.204c-0.121-0.123-0.081-0.123-0.241-0.123l-0.121,0.164
		c-0.2,0.163-0.2,0.245-0.4,0.367c-0.161,0.042-0.121,0-0.281,0.042c-0.121,0.449-0.161,0.367-0.602,0.531
		c-0.28,0.082-0.481,0.246-0.762,0.368l-1.644,0.614c-0.361,0.082-1.244,0.491-1.564,0.696c-0.562,0.327-1.243,0.245-1.163,1.063
		c0.401,0.368,0.762,0.041,1.283-0.163c0.401-0.123,1.002-0.328,1.323-0.533c0.321-0.164,1.083-0.449,1.404-0.572
		c0.441-0.163,0.802-0.409,1.283-0.532l6.577-2.865c0.321-0.122,0.441-0.122,0.762-0.244c0.641-0.369,1.323-0.532,2.005-0.819
		l2.646-1.104c0.441-0.205,0.882-0.327,1.323-0.532c0.321-0.164,0.321-0.123,0.722-0.246c0.521-0.162,1.524-0.735,1.965-0.777
		c-0.121,0.204-0.16,0.615,0.16,0.777c0.321,0,1.885-0.367,2.286-0.491c0.361-0.122,0.441,0,0.762-0.122
		c1.283-0.491,4.492-0.942,5.896-0.86c-0.401,0.165-0.882,0.287-1.324,0.451l-4.211,1.351c-0.2,0.123-0.401,0.163-0.602,0.285
		c-0.321,0.207-0.241,0.287-0.521,0.411c-0.281,0.204-0.32,0.081-0.601,0.326c-0.241,0.165-0.321,0.246-0.521,0.409
		c-0.241,0.287-0.361,0.982-0.08,1.351c1.243,1.596,4.05,0.859,5.734,0.369l1.323-0.533c0.562-0.244,0.762-0.286,1.204-0.613
		c0.842-0.573,1.523-0.899,1.844-1.882c0.121-0.491,0-1.146-0.2-1.474l0.401-0.286c0.12-0.041,0.241-0.082,0.4-0.123
		c0.401-0.082,0.521-0.124,0.923-0.164c-0.241,0.655-1.243,1.596-0.722,2.291c0.842,1.229,2.526,0.41,3.689,0.083
		c0.762-0.205,1.083-0.491,1.685-0.86c0.281-0.163,0.481-0.04,1.083-0.612l0.441-0.37c0.2,0.246,0.281,0.451,0.682,0.491
		c0.602,0.124,1.363,0,1.885-0.286c0.44-0.205,0.4-0.122,0.842-0.205c0.28-0.04,1.163-0.654,1.323-0.817
		c0.401-0.369,0.802-0.573,1.083-1.064c0.321,0.164,0.121,0.123,0.401,0.327c0.361,0.287,0.963,0.287,1.323,0.082
		c0.481-0.205,0.922-0.613,1.364-0.818l0.241,0.778c0.681-0.205,0.562-0.45,0.922-0.819c0.603-0.653,0.401-0.572,0.682-0.899
		c0.241-0.287,0.08,0.041,0.201-0.287c0.08-0.082,0.04-0.122,0.12-0.287c0.161-0.367,0.922-1.104,1.283-1.187
		c0.08,0.123,0.04-0.122,0.121,0.164c0.04,0.123,0,0.041,0,0.123l-0.121,0.899c-0.12,1.474,1.404,1.352,1.925,1.023
		c0.521-0.245,0.602-0.286,1.283-0.328c0.16-0.162,0.361-0.326,0.521-0.449c0.241-0.164,0.361-0.246,0.562-0.451
		c0.161,0.083,0,0,0.12,0.083c0,0,0,0.246,0.081,0.122c0-0.04,0,0.042,0.039,0.042c0.562,0.04,0.321,0.123,0.842-0.082
		c0.281-0.082,1.042-0.655,1.283-0.899c0.16-0.165,0.321-0.329,0.521-0.411c0.161,0.246,0.201,1.679,2.246,0.492
		c0.481-0.286,1.042-0.736,1.404-1.187c0.081-0.123,0.281-0.328,0.401-0.41c0.081,0.532,0.12,0.736,0.601,0.941
		c0.482,0.205,0.803-0.04,1.124-0.246c0.961-0.531,1.323-1.021,1.723-1.268l0.08,0.122c0,0.041,0.041,0.041,0.041,0.082
		c0.48,0.655,0.963-0.204,1.203-0.614c0.361-0.572,0.802-0.94,0.802-1.678c0.161-0.081,0.2-0.122,0.362-0.205
		c0.279-0.163,0.601-0.49,0.881-0.367c0.24,0.613-0.401,1.351,0.16,2.006c0.401,0.49,1.364,0.244,1.886,0.122
		c0.882-0.164,0.842-0.328,1.363-0.491c0.36-0.082,0.923-0.368,1.203-0.655c0.2-0.203,0.32-0.449,0.562-0.573
		c0.602,0.287,0.922,0.491,1.483,0.083c0.08-0.818-0.361-0.491-0.762-0.818c-0.24-0.205-0.16-0.573-0.281-0.859
		c-0.08-0.205,0,0-0.08-0.164c-0.12-0.163-0.28-0.122-0.44-0.205c-0.401-0.164-0.843-0.899-1.765-0.164
		c-0.121,0.082-0.201,0.247-0.321,0.369c-0.281,0.369-0.281,0.532-0.36,0.941c-0.2,0.736-0.2,0.776-0.04,1.556
		c-0.401,0.245-1.163,0.245-1.766,0.245c-0.039-0.532,0.28-1.556-0.119-1.965C85.811,40.558,84.93,40.885,84.527,40.968z
		 M89.221,41.623c0.159-0.042,0.079,0.04,0.2-0.083c-0.041,0.204-0.28,0.41-0.441,0.531c-0.04-0.121-0.161-0.041,0-0.408
		L89.221,41.623z M89.461,41.049c0.159-0.123,0.2-0.164,0.441-0.204c-0.081,0.204-0.161,0.286-0.322,0.409L89.461,41.049z"/>
	<path fill="#051380" d="M100.97,40.763c0.281-0.041,0.2-0.205,0.2-0.532c-0.521,0-0.48,0.082-0.882,0.205
		c0.32-0.654,0.643-1.351,0.842-2.047c0.723,0.082,1.604,0.206,2.366,0.082c1.685-0.245,2.366-0.409,4.091-0.982l1.885-0.654
		c-0.121,0.45-0.321,0.654-0.521,1.064c-0.441,0.817-1.724,1.637-2.767,1.923l-1.163,0.369
		C104.098,40.436,101.812,40.926,100.97,40.763z M120.54,34.092c-0.241-0.081-0.12-0.081-0.4-0.081
		c-0.201,0.613,0.04,0.409-0.482,0.777c-0.239,0.123-0.439,0.409-0.802,0.491c0.2-0.982,0.441-1.311,1.163-1.76
		c0.2-0.123,0.521-0.205,0.762-0.164L120.54,34.092z M101.33,35.075c-0.16,0.653-0.24,1.595-0.561,2.046
		c-0.4-0.368-1.083-0.983-1.203-1.475c-0.24-0.858-0.121-1.636,0.242-2.291c0.159-0.286,0.28-0.573,0.439-0.859
		c0.201-0.449,0.842-1.187,1.244-1.556c0.52-0.45,0.239-0.286,0.882-0.286l0.08-0.327c0.24,0.123,0.08,0.083,0.399,0.083
		c0.041-0.411,0.442-0.492,0.883-0.492c0.442,0,0.963-0.082,1.364-0.082c0.08,0.082,0.039,0.042,0.08,0.123
		c0,0.041,0.04,0.081,0.08,0.081c0.241,0.37,1.163-0.163,2.206,0.573c0.521,0.409,1.083,1.105,1.403,1.228
		c0.24,0.082,0.2-0.041,0.401,0.206c0.079,0.163,0.12,0.326,0.2,0.491c0.481,1.268,0.722,1.882,0.321,3.232
		c-0.321,0.163-1.163,0.572-1.484,0.654c-1.403,0.409-2.325,0.776-3.931,1.104c-0.159,0.041-0.28,0-0.44,0.083
		c-0.24,0.081-0.039,0.04-0.441,0.122c-0.28,0.041-0.28,0.041-0.44,0.164c-0.241-0.082-0.241-0.123-0.321-0.123
		c-0.36-0.082-0.161,0.041-1.122-0.205c0.08-0.286,0.199-0.573,0.32-0.941c0.16-0.531,0.641-2.537,0.241-3.027
		c-0.522-0.492-1.805,1.392-1.645,1.678C100.729,35.646,101.17,35.155,101.33,35.075z M127.237,32.578
		c0.079-0.451,0.119-0.368,0.32-0.655c0.161-0.327,0.08-0.327,0.401-0.491c0.521-0.286,0.561-0.695,1.163-0.573
		c-0.081,0.368-0.161,0.287-0.361,0.492C128.32,31.76,127.798,32.538,127.237,32.578z M110.675,35.319
		c0.2-1.473-0.081-1.841-0.521-3.068c-0.28-0.777-0.762-1.76-1.484-2.251c-0.762-0.491-1.563-0.9-2.726-0.941
		c-0.642,0-0.963-0.164-1.685,0c-0.522,0.082-1.122,0.122-1.564,0.286c-0.28,0.123-0.441,0.082-0.683,0.247
		c-0.561,0.327-1.081,0.694-1.523,1.227c-0.521,0.613-1.162,1.309-1.563,2.168c-0.08,0.165-0.401,1.188-0.441,1.392
		c-0.08,0.615,0.081,1.72,0.521,2.251l1.364,1.351c-0.121,0.491-0.883,2.128-1.163,2.497c-0.401-0.082-0.562-0.123-0.963,0.04
		c-0.04,0.286,0.039,1.555,0.44,1.719c0.683,0.082,0.723-0.45,1.084-0.776c0.521-0.041,0.882,0.122,1.322,0.164
		c0.562,0.08,1.966-0.205,2.607-0.328c1.243-0.287,2.486-0.532,3.608-1.023c0.764-0.328,1.284-0.818,1.845-1.351
		c0.121-0.122,0.562-0.654,0.643-0.859c0.36-0.655,0.44-1.678,1.123-2.005c0.12-0.042,0.16-0.042,0.239-0.123
		c0.321-0.245,0.482-0.245,0.803-0.45l1.765-1.31c0.2-0.205,0.12-0.205,0.361-0.368c0.24-0.164,0.24-0.164,0.44-0.368
		c0.281-0.204,0.642-0.655,0.884-0.777c-0.082,0.695-0.562,1.432-0.964,1.964l-0.682,0.777c-0.241,0.327-0.401,0.492-0.521,0.941
		c-0.12,0.491-0.481,0.941-0.24,1.474c0.882,0.163,0.682-0.41,1.163-0.777c0.36-0.328,0.683-0.655,0.842-1.146
		c0.201-0.574,0.402-0.369,0.402-0.982l0.399-0.164c0.121-0.491,0.081-0.614,0.441-0.859c0.762,0.123,0.722,0.736,0.722,1.555
		c-0.04,1.842,1.966,1.801,3.931-0.123c1.282,0.287,1.764-0.164,2.646-0.859l0.361-0.204c0.281,0.368,0.362,0.368,1.004,0.286
		l1.202-0.204c0.321-0.082,0.562-0.327,0.883-0.491c0.2-0.082,0.762-0.082,1.083-0.122c0.28-0.328,0.08-0.328,0.521-0.491
		c0.321-0.124,0.36-0.205,0.521-0.451c0.441-0.04,0.36,0.123,0.882,0.204c0.241-0.122,0.602-0.244,0.882-0.368
		c0.321,0.328,0.402,0.164,0.683,0.082c0.121-0.04,0.16,0.042,0.401,0c0.241-0.9,0.44-0.735,0.762-1.391
		c0.24-0.491,0.441-1.106,0.882-1.392c0.241-0.164,0.161,0,0.481-0.206c0.32-0.245,0.04-0.245,0.481-0.286
		c-0.04,0.984-0.602,1.556,0.119,2.252h0.041h0.2c0.441,0.04,0.522-0.083,0.923-0.328c0.16-0.082,0.36-0.124,0.602-0.246
		c0.281-0.122,0.36-0.246,0.562-0.368c0.32,0.163,0.161,0.204,0.481,0.328c0.16,0.081,0.08,0,0.28,0.122
		c0.441,0.245,0.321,0,0.722,0.082c0.24,0.041-0.041,0.123,0.321-0.082l0.04-0.736c-0.321-0.287-0.762-0.247-1.164-0.532
		c0.241-0.654,1.364-1.596,1.284-2.496c-0.36-0.491-1.243-0.982-1.725-0.205c-0.12,0.246-0.28,0.695-0.401,0.982
		c-0.4,1.228-0.119,1.679-0.44,1.883c-0.121,0.082-0.16,0-0.241,0.042l-0.562,0.287c-0.039,0-0.24,0.162-0.24,0.162
		c-0.12-0.613,0.121-0.654,0.121-1.064c0-0.368-0.281-0.695-0.362-0.941c-0.881-0.042-0.881,0.122-1.482,0.246
		c-0.521-1.146-1.203,0.778-1.645,1.432c-0.763,1.023-0.441,1.31-1.926,1.72c0.041-0.41,0.802-1.393,0.401-2.006
		c-0.12-0.082-1.363-0.287-1.644-0.164l-0.563,0.408c-0.361,0.369,0.041,0.164-0.561,0.41c-1.083,0.491-1.403,1.514-1.244,2.578
		c-0.48,0.368-0.2,0.246-0.881,0.328c-0.362,0.04-0.603,0.205-1.043,0.205c0.119-1.352,1.604-1.515,1.323-2.251
		c-0.081-0.205-0.201-0.205-0.441-0.164c-0.12,0-0.201,0.041-0.28,0.041c-0.521,0.041,0.119-0.41-0.882-0.9
		c-0.683-0.369-2.206,0.245-1.484,1.187c0.159,0.204,0.2,0.286,0.401,0.368c0.239,0.082,0.481,0.082,0.721,0.164
		c0,0.409-0.2,0.573-0.32,0.859c-0.521,1.146-0.48,0.777-1.163,1.187c-0.321,0.205-0.521,0.286-0.922,0.327
		c0.04-0.654,0.44-0.736,0.4-1.596c0-0.899-0.481-0.368-0.963-0.941c-0.24-0.04-0.561-0.04-0.801,0c-0.28,0-0.803,0.368-1.004,0.533
		c-0.521,0.613-0.842,1.431-1.081,2.169c-0.122,0.448-0.281,0.654-0.122,1.104c-0.239-0.204-0.08-1.187-0.32-1.842
		c-0.16-0.531-0.722-0.777-1.202-0.94c0.359-1.105,1.002-2.415,1.442-3.437c0.281-0.574,0.562-1.146,0.683-1.801
		c0.121-0.654,0.683-1.31,0.24-1.924c-0.441-0.041-0.521,0.123-0.682,0.41l-0.882,2.333c-0.361,1.227-1.323,2.456-2.206,3.314
		c-0.159,0.204-0.401,0.328-0.562,0.532c-0.199,0.205-0.28,0.369-0.48,0.573l-1.564,1.228
		C111.958,34.501,111.116,35.155,110.675,35.319z"/>
	<path fill="#051380" d="M51.523,47.516c-0.321-0.41,0-0.165-0.241-0.41c-0.361-0.326-1.083,0.123-0.481,1.269
		c0.481,0.041,0.762-0.286,0.803-0.695C51.563,47.556,51.523,47.556,51.523,47.516z"/>
	<path fill="#051380" d="M22.449,52.672c0.081-0.328-0.12-0.369-0.28-0.164C22.249,52.672,22.208,52.712,22.449,52.672z"/>
</g>
</svg>
