<?xml version="1.0" encoding="utf-8"?>
<!-- Generator: Adobe Illustrator 16.0.0, SVG Export Plug-In . SVG Version: 6.00 Build 0)  -->
<!DOCTYPE svg PUBLIC "-//W3C//DTD SVG 1.1//EN" "http://www.w3.org/Graphics/SVG/1.1/DTD/svg11.dtd">
<svg version="1.1" id="Layer_1" xmlns="http://www.w3.org/2000/svg" xmlns:xlink="http://www.w3.org/1999/xlink" x="0px" y="0px"
	 width="160px" height="60px" viewBox="0 0 160 60" enable-background="new 0 0 160 60" xml:space="preserve">
<g id="Layer_x0020_1">
	<path fill="#FFFFFF" d="M70.043,4.371v12.81c0,0.327-0.04,1.227,0.08,1.473c0,0.083,0,0.042,0.041,0.164
		c0,0.164-0.041,0.368,0,0.532c0.04,0.164,0.04,0.164,0.04,0.328c0.04,0.163,0-0.041,0.04,0.124c0.041,0.163,0.041,0.45,0.161,0.777
		c0.04,0.082,0.04,0.082,0.04,0.164c0.04,0.041,0.04,0.082,0.04,0.164l0.12,0.45l0,0l0.161,0.409c0.04,0.082,0.04,0.164,0.08,0.287
		c0.041,0.081,0.081,0.163,0.121,0.246c0.081,0.245,0.442,1.063,0.602,1.268l0.361,0.573c0.08,0.082,0.04,0.082,0.08,0.124
		l0.481,0.613c0.201,0.205,0.361,0.45,0.562,0.614c0.081,0.082,0.12,0.123,0.201,0.164l1.323,1.105
		c0.081,0.042,0.081,0.042,0.161,0.042c0.041,0.041,0.12,0.122,0.2,0.163c0.081,0.042,0.161,0.082,0.24,0.123
		c0.121,0.082,0.121,0.082,0.241,0.164l0.481,0.246c0.041,0.041,0.081,0.041,0.121,0.082c0.321,0.123,0.762,0.328,1.042,0.409
		l2.206,0.614c0.161,0.041,0.481,0.123,0.763,0.164c0.16,0,0.04,0,0.16,0.041l0.682,0.082c0.321,0,0.401,0.042,0.683,0.042
		l3.168-0.082c0.521-0.123,0.44-0.082,0.643-0.123l1.162-0.328c0.08-0.041,0.119-0.041,0.201-0.082l0.561-0.205
		c0.08-0.041,0.08-0.041,0.161-0.082c0.118-0.082,0.241-0.122,0.36-0.205c0.041,0,0.08-0.041,0.16-0.082l0.32-0.205
		c0.12-0.041,0.08,0,0.2-0.082c0.039-0.041,0.08-0.041,0.121-0.081c0.118-0.165-0.082-0.041,0.159-0.123
		c0.281-0.164,0.763-0.778,1.002-1.064l0.4-0.614c0.08-0.082,0.041,0.041,0.08-0.123c0.041-0.041,0.041-0.082,0.041-0.123
		c0.041-0.041,0.041-0.041,0.08-0.082l0.16-0.368c0.041-0.082,0.041-0.082,0.041-0.164c0.04-0.246,0.158-0.368,0.199-0.614
		c0.039-0.082,0-0.082,0.039-0.205c0.041-0.123,0.041-0.082,0.041-0.246c0-0.204,0.08-0.163,0.08-0.45c0-0.328,0.121-0.45,0-0.941
		l-0.201-1.351l-0.318-0.736c0-0.041-0.041-0.083-0.08-0.164l-0.281-0.491c-0.16-0.328-0.44-0.614-0.682-0.86
		c-0.12-0.122-0.12-0.163-0.241-0.286c-0.2-0.123-0.401-0.327-0.562-0.45c-0.16-0.082-0.28-0.205-0.441-0.328
		c-0.16-0.041-0.199-0.122-0.32-0.204c-0.28-0.083-0.44-0.246-0.883-0.41c-0.279-0.123-0.803-0.409-1.082-0.45l-0.802-0.245
		c-0.241-0.082-0.481-0.123-0.683-0.164l-0.32-0.082c-0.12-0.042-0.08-0.042-0.241-0.042l-1.362-0.409
		c-0.242-0.081-0.723-0.245-0.883-0.409l-0.322-0.205c-0.36-0.286-0.36-0.451-0.36-0.859c0-0.123,0-0.246,0.041-0.328
		c0.04-0.205,0.2-0.409,0.399-0.532l0.401-0.287c0.121-0.081,0.321-0.123,0.481-0.164c0.4-0.204,0.601-0.163,1.123-0.163
		c0.4,0,0.923,0,1.201,0.081c0.281,0.082,0.763,0.246,1.004,0.328c0.08,0.041,0.121,0.082,0.199,0.124
		c0.322,0.082,0.963,0.49,1.244,0.695c0.08,0.082,0.119,0.123,0.201,0.164c0.239,0.164,0.439,0.246,0.721,0.287
		c0.24,0.041,0.08,0.082,0.521,0.082c0.32,0,0.643-0.123,0.883-0.286c0.24-0.123,0.439-0.287,0.641-0.532
		c0.121-0.123,0.361-0.737,0.402-0.982c0.119-0.614-0.201-1.432-0.645-1.801c-0.039-0.041-0.039-0.041-0.078-0.082s0,0-0.039-0.081
		c-0.281-0.246-1.045-0.656-1.405-0.901L87.85,9.569c-0.119-0.041-0.16-0.124-0.283-0.164l-0.239-0.081
		c-0.28-0.164-0.763-0.328-1.083-0.409c-0.121-0.041-0.199-0.082-0.32-0.123c-0.279-0.082-0.521-0.082-0.802-0.164
		c-0.603-0.164-1.284-0.205-1.925-0.205c-0.2,0-0.602,0-0.723,0.042c-0.24,0.041-0.44,0.041-0.682,0.082
		c-0.32,0.123-0.521,0.164-0.882,0.287l-1.083,0.409c-0.04,0.041-0.08,0.041-0.121,0.082c-0.16,0.122-0.04,0.041-0.241,0.122
		c-0.16,0.083-0.2,0.164-0.32,0.246c-0.201,0.124-0.321,0.206-0.441,0.328c-0.121,0.123-0.161,0.082-0.241,0.164
		c-0.2,0.164-0.361,0.451-0.522,0.613c-0.12,0.164-0.2,0.287-0.32,0.451c-0.161,0.246-0.321,0.491-0.401,0.777
		c-0.081,0.204-0.201,0.369-0.24,0.655c-0.041,0.163,0,0.081-0.081,0.163c-0.08,0.205-0.12,0.45-0.12,0.655v0.573
		c-0.04,0.082-0.08,0.041-0.08,0.123c0,0.246,0.08,0.082,0.08,0.327c0,0.614,0,0.287,0.041,0.573c0.08,0.287,0,0.164,0.12,0.532
		c0.121,0.287,0.041,0.246,0.201,0.614l0.281,0.573c0.081,0.123,0.04,0.123,0.16,0.246s0.081,0.123,0.161,0.245
		c0.04,0.083,0.16,0.165,0.2,0.205c0.161,0.164,0.201,0.327,0.402,0.45c0.16,0.082,0.281,0.246,0.481,0.368
		c0.12,0.041,0.12,0.082,0.201,0.164c0.08,0.082,0.16,0.122,0.24,0.163c0.121,0.042,0.161,0.083,0.281,0.164l0.682,0.328
		c0.24,0.123,0.48,0.245,0.722,0.327c0.4,0.123,0.802,0.287,1.242,0.368c0.121,0.042,0.041,0.042,0.16,0.083l0.683,0.124
		c0.081,0.04,0.04,0.04,0.161,0.04l2.447,0.86c0.158,0.082,0.4,0.205,0.479,0.328c0.281,0.246,0.604,0.532,0.684,0.982
		s0.039,0.655-0.121,1.064c-0.08,0.246-0.36,0.532-0.563,0.655l-0.359,0.246c-0.08,0.042-0.08,0.042-0.16,0.082
		c-0.28,0.122-0.643,0.246-0.922,0.287c-0.803,0.163-0.723,0.082-1.283,0.163c-0.121,0-0.082,0.041-0.162,0.041
		c-0.079,0.042-0.24-0.041-0.36-0.041s-0.28,0-0.401,0.041c-0.279,0-0.121-0.041-0.32-0.041c-0.241-0.041-0.562,0-0.842,0
		c-0.121-0.041-0.16-0.082-0.28-0.082c-0.2,0-0.24,0-0.361-0.041c-0.201-0.041-0.521-0.041-0.722-0.124l-1.002-0.245
		c-0.24-0.042-1.042-0.369-1.323-0.533l-0.041-0.041l-0.32-0.164c-0.28-0.123-0.481-0.327-0.762-0.532
		c-0.08-0.041-0.161-0.123-0.241-0.164l-0.2-0.204c-0.081-0.123-0.161-0.164-0.281-0.327l-0.321-0.328
		c-0.081-0.082-0.081-0.123-0.161-0.246s-0.121-0.123-0.2-0.245l-0.08-0.205c-0.122-0.164-0.201-0.409-0.321-0.614l-0.161-0.451
		c-0.12-0.286-0.16-0.695-0.24-1.023c0-0.123,0-0.082-0.041-0.164c-0.121-0.614-0.08-2.947-0.08-3.683V8.628
		c0-0.327-0.041-1.391,0.041-1.637c0.2-0.409,0.04-0.613,0.601-0.695c0.161,0,0.12-0.082,0.401-0.082h10.105
		c0.24,0,0.16,0.041,0.361,0.041l0.881,0.082c0.121,0,0,0.041,0.162,0.041l0.722,0.164c0.118,0,0.079,0.041,0.2,0.041
		c0.319,0.041,0.562,0.205,0.881,0.246c0.201,0.042,0.363,0.164,0.521,0.205c0.36,0.122,0.723,0.327,1.083,0.491
		c0.039,0,0.039,0.041,0.08,0.041l0.201,0.123c0.16,0.082,0.319,0.205,0.479,0.245l0.803,0.573c0.562,0.41,1.283,0.982,1.725,1.473
		c0.12,0.123,0.241,0.205,0.321,0.369l0.521,0.614c0.041,0.082,0.041,0.082,0.08,0.164l0.32,0.409
		c0.121,0.123,0.24,0.369,0.361,0.533c0.039,0.082,0,0.082,0.039,0.163l0.201,0.246c0.2,0.41,0.562,1.023,0.682,1.433l0.643,2.128
		c0.039,0.082,0.039,0.041,0.039,0.164c0.041,0.082,0,0.163,0.041,0.204c0.12,0.532,0.079,0.696,0.12,0.859
		c0.039,0.164,0.039,0.082,0.039,0.369c0,0.245-0.039,0.491,0,0.695c0.041,0.205,0.081,0,0.081,0.164
		c-0.04,0.655-0.04,0.286-0.081,0.572c-0.039,0.287,0.081,0.614,0,0.942c-0.039,0.204-0.039,0.042-0.039,0.368
		c0,0.164-0.12,0.45-0.12,0.614c-0.041,0.041,0,0.123-0.041,0.164c0,0.205,0,0.082-0.039,0.205c0,0.123,0,0.123-0.041,0.246
		l-0.318,1.105c-0.082,0.205-0.082,0.368-0.162,0.491c-0.079,0.205-0.12,0.45-0.24,0.654c-0.04,0.082-0.12,0.205-0.161,0.327
		c-0.08,0.246-0.199,0.492-0.36,0.737l-0.801,1.269c-0.081,0.082-0.041,0-0.121,0.123l-0.201,0.286
		c-0.16,0.246-0.642,0.737-0.841,0.982c-0.2,0.163-0.401,0.409-0.603,0.573c-0.121,0.082-0.121,0.082-0.241,0.205
		c-0.12,0.123-0.12,0.123-0.278,0.205l-0.363,0.287c-0.039,0.041-0.08,0.082-0.118,0.122l-2.327,1.352
		c-0.119,0.041-0.199,0.081-0.359,0.123c0,0-0.121,0.04-0.16,0.082c-0.44,0.204-1.203,0.41-1.725,0.491
		c-0.084,0.035-0.164,0.035-0.244,0.035l-0.359,0.082c-0.162,0-0.201,0.042-0.36,0.042L85.402,31.3c-0.12,0-0.319,0-0.44,0h-5.935
		c-0.481,0-1.002,0.165-1.364,0.49c-0.281,0.246-0.562,0.574-0.642,0.982c0,0.122-0.04,0.041-0.04,0.163l-0.041,0.205
		c-0.08,0.164-0.04,0.409,0,0.531l0.081,0.45c0.04,0.164,0.16,0.246,0.201,0.369c0.2,0.326,0.682,0.776,1.083,0.858
		c0.12,0.041,0.12,0.041,0.201,0.081c0.401,0.123,0.762,0.082,1.123,0.082c0.481,0,5.454,0.041,5.773-0.04
		c0.08,0,0.041,0,0.16-0.042c0.16,0,0.361,0,0.521,0l0.883-0.122c0.119-0.041,0.039-0.041,0.201-0.041
		c0.039-0.041,0.159,0,0.239-0.041l0.401-0.082c0.159-0.041,0.279-0.081,0.44-0.081c0.16-0.042,0.401-0.123,0.562-0.164
		c0.082-0.041,0.121-0.041,0.201-0.041l0.36-0.123c0,0,0,0,0.039,0l0.963-0.367h0.041l1.202-0.49
		c0.281-0.124,0.521-0.286,0.803-0.451c0,0,0,0,0.04,0v-0.041c0,0,0,0,0.039,0l1.926-1.268c0.04-0.043,0.081-0.043,0.12-0.082
		l0.16-0.125c0.32-0.244,0.563-0.447,0.843-0.734c0.24-0.246,0.562-0.491,0.802-0.737c0.08-0.123,0.16-0.164,0.241-0.246
		c0.08-0.124,0.119-0.205,0.2-0.287c0.08-0.122,0.2-0.164,0.238-0.286l1.005-1.351c0.159-0.164,0.36-0.532,0.481-0.737l0.48-0.777
		c0.08-0.123,0-0.082,0.08-0.204l0.4-0.819l0,0l0.08-0.246c0.159-0.327,0.319-0.696,0.44-1.064l0.36-1.146
		c0.041-0.123,0-0.123,0.041-0.205c0.119-0.246,0.199-0.777,0.279-1.064l0.08-0.696c0-0.164,0.04-0.164,0.079-0.45
		c0-0.123,0-0.123,0.041-0.246l0.081-0.9c0-0.164,0-0.369,0-0.532c0-0.041,0-0.204,0-0.204c0.039-0.124,0.08-0.246,0-0.41
		c-0.041-0.164,0-0.982,0-1.187c-0.041-0.246-0.122-0.655-0.122-0.9l-0.239-1.351c-0.08-0.246-0.08-0.573-0.199-0.818
		c0-0.041-0.082-0.164-0.082-0.164c-0.039-0.246-0.039-0.368-0.159-0.614l-0.683-1.882c-0.08-0.082-0.039,0-0.08-0.123
		c-0.039-0.082-0.039-0.123-0.08-0.204l-0.357-0.653c-0.08-0.123-0.08-0.205-0.16-0.328l-0.199-0.369
		c-0.041-0.081-0.041-0.041-0.121-0.123c-0.041-0.082-0.121-0.204-0.201-0.327l-0.28-0.45c-0.159-0.246-0.32-0.45-0.481-0.655
		l-1.162-1.35c-0.08-0.082-0.119-0.123-0.24-0.246c-0.079-0.082-0.16-0.164-0.241-0.246l-0.802-0.736
		c-0.2-0.205-0.48-0.327-0.721-0.532l-0.604-0.408c-0.08-0.082-0.041-0.082-0.12-0.164c-0.121-0.04-0.241-0.082-0.321-0.163
		c-0.08-0.083,0-0.083-0.119-0.123c-0.32-0.124-0.201-0.164-0.521-0.246c-0.081-0.041-0.2-0.164-0.321-0.204
		c-0.521-0.246-1.003-0.532-1.563-0.737l-0.159-0.082l-0.161-0.082l-0.563-0.205c-0.039,0-0.039,0-0.078,0l-0.481-0.164
		c-0.08,0-0.161-0.082-0.201-0.082l-1.003-0.246c-0.199-0.082-0.48-0.042-0.681-0.123c-0.2-0.083-1.124-0.205-1.325-0.205
		c-0.199,0-0.52,0.041-0.721-0.041c-0.24-0.083-11.389,0-12.672,0c-0.401,0-0.481-0.042-0.882,0.041
		c-0.281,0.041-0.44,0.041-0.681,0.205c-0.201,0.123-0.361,0.123-0.563,0.409c-0.08,0.083-0.04,0.122-0.12,0.205
		c-0.16,0.164-0.241,0.45-0.361,0.737C70.083,3.84,70.043,4.126,70.043,4.371z"/>
	<path fill="#FFFFFF" d="M41.089,55.813l1.083-0.573c0.481-0.244,0.722-0.735,0.882-0.858c0.361,0.123-0.08,0.081,0.361,0.123
		c0.401-0.287,0.16-0.369,0.722-0.408l1.845-0.656c0.561-0.204,0.561-0.122,1.042-0.081c0.4-0.613,0.201-0.287,0.922-0.574
		c0.321-0.162,0.803-0.326,1.204-0.326c0.682,0.9,0.24,1.473-0.602,2.129c-1.124,0.9-1.203,0.654-1.605,0.9
		c-0.32,0.243-0.761,0.408-1.202,0.49c-0.481,0.081-0.321,0.081-0.642,0.244C45.059,56.263,41.53,56.917,41.089,55.813z
		 M55.125,52.866c0-0.49,0.321-0.981,0.602-1.229c0.161-0.123,0.401-0.327,0.601-0.368C58.414,51.065,55.967,52.782,55.125,52.866z
		 M61.06,51.27c0.161-1.31,0.602-1.351,1.284-1.677c0.12-0.042,0.2-0.082,0.281-0.124c0.441-0.204,0.241,0.082,0.32-0.123
		c0-0.04,0.041,0,0.041-0.04l-0.161,0.45c-0.281,0.653-0.762,1.063-1.363,1.391C61.221,51.311,61.421,51.27,61.06,51.27z
		 M87.527,42.021c0.322-1.024,1.043-2.823,0.883-4.134c-1.003-0.532-0.962,0.941-1.162,1.719c-0.361,1.352-1.365,3.766-2.287,4.83
		c0,0-0.12,0.122-0.079-0.205c0.04-0.246,0-0.042,0.079-0.164c0.121-0.164,0.201,0.164,0.161-0.451h-0.401
		c-0.039,0.125-0.039,0.248-0.039,0.33c0,0.121,0,0-0.041,0.162c-0.563,1.311-0.803,0.941-1.564,1.678
		c-0.4,0.328-0.48,0.205-0.48-0.327c0.16-0.368,0,0,0.36-0.285c0.041-0.45-0.12-0.164-0.08-0.492c0-0.369,0.481-1.063,0.603-1.351
		c0.641-1.514,0.078-0.858,1.322-1.352c0-0.9-0.04-0.449-0.48-1.021c0.24-0.245-0.079-0.164,0.32-0.491L84.6,39.811
		c-0.039-0.286-0.24-0.327-0.479-0.368c-0.479,0.245-0.843,1.394-0.922,2.047c-0.241,0-0.763,0.123-1.003,0.164
		c-0.359,0.123-0.641,0.082-1.002,0.203c-0.32,0.082-0.562,0.246-0.841,0.369c-0.442,0.164-0.361,0.041-0.763,0.368
		c0.041,0.49,0.12,0.573,0.642,0.53c0.48-0.041,1.082-0.203,1.563-0.367c0.201-0.08,0.642-0.122,0.883-0.122
		c-0.12,0.489-0.321,0.694-0.481,1.146c-0.16,0.328-0.4,0.778-0.6,1.022c-0.121,0.164-0.121,0.164-0.242,0.329
		c-0.08,0.122-0.121,0.122-0.24,0.245c-0.28,0.368-0.642,0.735-1.042,1.104c-0.28,0.245-0.04,0.041-0.28,0.082
		c-0.361,0.041-0.683,0.45-1.083,0.45c0.161-1.188,1.443-1.964,1.123-2.742c-0.481-0.162-0.682,0.123-1.203,0.123
		c-0.201-0.408-0.201-0.326-0.442-0.572c-0.32-0.205-1.724-0.041-1.083,1.104c0.201,0.367,0.161-0.164,0.201,0.491l0.321,0.121
		c-0.08,0.533-0.441,0.9-0.762,1.146c-0.12,0.124-0.161,0.165-0.281,0.246c-0.041,0.041-0.201,0.164-0.281,0.204
		c-0.24,0.124-0.401,0.246-0.682,0.287c0.161-0.491,0.481-0.9,0.722-1.474c0.081-0.246,0.12-0.246-0.041-0.492
		c-0.28-0.284-0.561,0-0.802,0.123c-1.163-0.653-1.684,0.123-2.166,0.779c-0.642,0.817-1.042,1.063-0.922,2.25
		c-0.441,0-0.963,0.489-1.083-0.041c-0.04-0.205,0.081-0.328,0.121-0.531c0.241-0.941,0.361-2.414-0.922-1.842
		c0.121-0.287-0.041,0,0.121-0.328c0.04-0.082,0.08-0.164,0.08-0.205c0.562-0.939,0.883-2.25,1.204-2.864
		c0.08-0.163,0.2-0.204,0.32-0.285c-0.04-0.533-0.241-0.287,0-0.533c0-0.53,0.041-0.653-0.561-0.612
		c-0.321,0.164-0.642,1.391-0.802,1.717c-0.241,0.533-0.682,1.68-1.003,2.09c-0.12,0.204-0.12,0.204-0.24,0.408l-0.883,1.555
		c-0.241,0.41-0.281,0.287-0.601,0.656c-0.441-0.369-0.361-0.124-0.402-0.084c0.041,0.328,0.081,0.205,0.281,0.328
		c-0.281,0.162-0.521,0.449-0.802,0.695c-0.08,0.041-0.321,0.287-0.361,0.287c-0.201,0.122-0.361-0.124-0.562,0.163l-0.521,0.491
		c-0.201,0.123-0.481,0.285-0.722,0.326c-0.241-0.285-0.241-0.367,0-0.775l0.842-1.475c0.481-0.654,2.005-3.273,1.805-3.848
		c-0.562-0.695-1.043,0.123-1.323,0.573l-1.283,1.964c-0.04,0.123-0.121,0.369-0.201,0.45c-0.28,0.532-0.441,1.146-0.722,1.76
		c-0.201,0.449-0.04,0.614-0.481,0.818c0-0.369,0.04-0.736-0.201-0.899c-0.401-0.328-1.042-0.287-1.483-0.041
		c-0.441,0.286-0.241,0.204-0.481,0.531c-0.241,0.409-1.604,0.737-1.203,2.701c-1.604,0.123-1.845,0.123-0.842-1.391
		c0.281-0.451,0.602-0.819,0.842-1.312c0.2-0.489,1.404-2.537,1.283-2.905c-0.12-0.205-0.2-0.326-0.561-0.285
		c-0.281,0.285-0.161,0.326-0.401,0.653c-1.002,1.433-1.243,2.251-1.924,3.233c-0.281,0.367-0.441,0.898-0.722,1.268
		c-0.12-0.244-0.16-0.408-0.36-0.572c-0.521-0.41-1.003-0.123-1.524,0c-0.322,0.082-1.003,0.532-1.204,0.737
		c-0.441,0.654-0.922,1.228-0.642,2.127c-0.401,0.287-0.602,0.328-1.083,0.328c-0.521,0-0.682,0.204-1.123-0.164
		c0.08-0.245,0.161-0.45,0.321-0.612c0.601-0.736,0.802-0.86,0.642-1.966c-0.481-0.327-0.602-0.286-1.284-0.122
		c-0.361,0.081-1.805,0.49-2.125,0.49c-0.4,0-0.923-0.409-2.166-0.409c-0.722,0-0.922,0.082-1.604,0.123
		c-0.802,0.082-3.85,0.859-4.17,0.817c0.761-0.448,1.363-0.654,1.965-0.98c0.762-0.492,2.527-1.104,3.449-1.393
		c0.201-0.082,0.441-0.245,0.642-0.328l1.524-0.529c0.802-0.205,2.405-0.943,3.528-1.271l1.203-0.327
		c0.281-0.082,0.121-0.041,0.321-0.163c0.802-0.409,2.366-0.737,2.927-0.981c0.481-0.205,0.922-0.369,1.404-0.41
		c0.16,0,0.24-0.041,0.361-0.123l0.281-0.204c0.441-0.205,1.123-0.245,1.564-0.409l0.642-0.244c0.882-0.533,1.965-0.533,2.727-1.229
		l-0.08-0.614c-0.441-0.122-0.722,0.041-1.123,0.163l-0.882,0.367c-0.602,0.33-1.364,0.451-2.005,0.615l-2.567,0.9
		c-1.443,0.244-4.772,1.637-6.336,2.169c-1.644,0.531-3.329,1.269-4.973,1.841c-0.802,0.287-1.564,0.736-2.366,0.982
		c-0.241,0.082-0.441,0.164-0.682,0.244l-4.893,1.966c-0.24,0.082-0.401,0.163-0.602,0.245l-3.649,1.433
		c-0.762,0.287-1.604,0.778-2.366,1.063l-5.494,2.209c-0.201,0.082-0.441,0.164-0.602,0.246c-0.321,0.123-0.842,0.49-1.203,0.328
		c0-0.084,0.08-0.084,0.201-0.205c-0.121-0.123-0.081-0.123-0.241-0.123L24.248,57.2c-0.2,0.164-0.2,0.246-0.4,0.367
		c-0.161,0.043-0.121,0-0.281,0.043c-0.121,0.448-0.161,0.366-0.602,0.53c-0.28,0.082-0.481,0.246-0.762,0.368l-1.644,0.613
		c-0.361,0.082-1.244,0.492-1.564,0.697c-0.562,0.326-1.243,0.244-1.163,1.063c0.401,0.367,0.762,0.041,1.283-0.163
		c0.401-0.123,1.002-0.328,1.323-0.533c0.321-0.164,1.083-0.448,1.404-0.571c0.441-0.164,0.802-0.41,1.283-0.533l6.577-2.864
		c0.321-0.122,0.441-0.122,0.762-0.244c0.641-0.369,1.323-0.532,2.005-0.819l2.646-1.104c0.441-0.205,0.882-0.327,1.323-0.532
		c0.321-0.164,0.321-0.123,0.722-0.246c0.521-0.161,1.524-0.735,1.965-0.776c-0.121,0.203-0.16,0.615,0.16,0.776
		c0.321,0,1.885-0.366,2.286-0.491c0.361-0.121,0.441,0,0.762-0.121c1.283-0.491,4.492-0.942,5.896-0.86
		c-0.401,0.165-0.882,0.287-1.324,0.45l-4.211,1.352c-0.2,0.123-0.401,0.163-0.602,0.285c-0.321,0.207-0.241,0.287-0.521,0.411
		c-0.281,0.204-0.32,0.081-0.601,0.325c-0.241,0.166-0.321,0.246-0.521,0.41c-0.241,0.287-0.361,0.981-0.08,1.351
		c1.243,1.596,4.05,0.858,5.734,0.369l1.323-0.533c0.562-0.244,0.762-0.286,1.204-0.613c0.842-0.573,1.523-0.899,1.844-1.882
		c0.121-0.491,0-1.146-0.2-1.475l0.401-0.285c0.12-0.041,0.241-0.082,0.4-0.123c0.401-0.082,0.521-0.124,0.923-0.164
		c-0.241,0.654-1.243,1.596-0.722,2.291c0.842,1.229,2.526,0.41,3.689,0.083c0.762-0.205,1.083-0.491,1.685-0.86
		c0.281-0.162,0.481-0.039,1.083-0.611l0.441-0.371c0.2,0.246,0.281,0.451,0.682,0.492c0.602,0.123,1.363,0,1.885-0.287
		c0.44-0.205,0.4-0.121,0.842-0.205c0.28-0.039,1.163-0.653,1.323-0.816c0.401-0.369,0.802-0.572,1.083-1.064
		c0.321,0.164,0.121,0.123,0.401,0.328c0.361,0.287,0.963,0.287,1.323,0.082c0.481-0.205,0.922-0.613,1.364-0.818l0.241,0.777
		c0.681-0.205,0.562-0.449,0.922-0.818c0.603-0.653,0.401-0.572,0.682-0.899c0.241-0.286,0.08,0.041,0.201-0.286
		c0.08-0.082,0.04-0.123,0.12-0.287c0.161-0.367,0.922-1.104,1.283-1.188c0.08,0.123,0.04-0.122,0.121,0.164
		c0.04,0.123,0,0.041,0,0.123l-0.121,0.898c-0.12,1.475,1.404,1.353,1.925,1.023c0.521-0.245,0.602-0.286,1.283-0.328
		c0.16-0.162,0.361-0.326,0.521-0.449c0.241-0.164,0.361-0.246,0.562-0.451c0.161,0.084,0,0,0.12,0.084c0,0,0,0.246,0.081,0.121
		c0-0.039,0,0.043,0.039,0.043c0.562,0.039,0.321,0.123,0.842-0.082c0.281-0.082,1.042-0.656,1.283-0.899
		c0.16-0.165,0.321-0.329,0.521-0.411c0.161,0.246,0.201,1.68,2.246,0.492c0.481-0.286,1.042-0.736,1.404-1.188
		c0.08-0.123,0.28-0.328,0.4-0.41c0.081,0.532,0.12,0.736,0.602,0.941s0.803-0.04,1.123-0.246c0.961-0.531,1.323-1.021,1.724-1.268
		l0.08,0.121c0,0.041,0.041,0.041,0.041,0.082c0.479,0.656,0.963-0.203,1.202-0.613c0.361-0.572,0.803-0.939,0.803-1.678
		c0.161-0.082,0.199-0.123,0.361-0.205c0.279-0.163,0.602-0.49,0.881-0.367c0.24,0.613-0.4,1.352,0.16,2.006
		c0.401,0.49,1.365,0.244,1.887,0.122c0.882-0.164,0.842-0.328,1.363-0.491c0.359-0.082,0.922-0.367,1.203-0.654
		c0.199-0.203,0.319-0.449,0.562-0.574c0.603,0.287,0.922,0.492,1.483,0.084c0.08-0.818-0.361-0.491-0.763-0.818
		c-0.239-0.205-0.159-0.572-0.28-0.859c-0.08-0.205,0,0-0.08-0.164c-0.121-0.162-0.28-0.121-0.44-0.205
		c-0.401-0.164-0.843-0.898-1.765-0.164c-0.121,0.082-0.201,0.248-0.321,0.369c-0.281,0.369-0.281,0.532-0.36,0.941
		c-0.199,0.736-0.199,0.775-0.039,1.557c-0.402,0.244-1.164,0.244-1.767,0.244c-0.039-0.531,0.28-1.556-0.119-1.965
		C88.811,41.612,87.93,41.938,87.527,42.021z M92.221,42.677c0.159-0.042,0.079,0.04,0.2-0.083c-0.041,0.204-0.28,0.41-0.44,0.53
		c-0.041-0.12-0.162-0.04,0-0.407L92.221,42.677z M92.461,42.103c0.159-0.123,0.2-0.164,0.441-0.204
		c-0.082,0.204-0.161,0.286-0.322,0.409L92.461,42.103z"/>
	<path fill="#FFFFFF" d="M103.971,41.817c0.28-0.041,0.199-0.205,0.199-0.533c-0.521,0-0.48,0.082-0.882,0.205
		c0.319-0.653,0.644-1.351,0.842-2.047c0.724,0.082,1.604,0.206,2.366,0.082c1.686-0.244,2.365-0.408,4.091-0.981l1.886-0.654
		c-0.121,0.45-0.322,0.654-0.521,1.063c-0.441,0.817-1.725,1.638-2.768,1.924l-1.162,0.369
		C107.098,41.489,104.813,41.979,103.971,41.817z M123.54,35.146c-0.241-0.081-0.12-0.081-0.399-0.081
		c-0.201,0.613,0.039,0.409-0.482,0.777c-0.239,0.123-0.439,0.409-0.803,0.491c0.201-0.982,0.441-1.312,1.164-1.76
		c0.199-0.123,0.521-0.205,0.762-0.164L123.54,35.146z M104.33,36.129c-0.16,0.653-0.24,1.595-0.561,2.046
		c-0.4-0.368-1.084-0.982-1.203-1.475c-0.24-0.858-0.121-1.637,0.242-2.291c0.158-0.287,0.279-0.573,0.438-0.859
		c0.201-0.449,0.842-1.188,1.244-1.557c0.521-0.449,0.239-0.285,0.882-0.285l0.08-0.327c0.24,0.123,0.08,0.083,0.398,0.083
		c0.041-0.411,0.442-0.492,0.883-0.492c0.443,0,0.964-0.082,1.365-0.082c0.08,0.082,0.039,0.042,0.08,0.123
		c0,0.041,0.039,0.081,0.079,0.081c0.241,0.37,1.163-0.163,2.206,0.573c0.521,0.408,1.083,1.104,1.403,1.228
		c0.239,0.082,0.2-0.041,0.401,0.206c0.078,0.163,0.119,0.326,0.199,0.491c0.481,1.269,0.723,1.882,0.321,3.231
		c-0.321,0.164-1.163,0.572-1.483,0.654c-1.404,0.409-2.326,0.776-3.932,1.104c-0.159,0.041-0.279,0-0.439,0.084
		c-0.24,0.08-0.039,0.039-0.441,0.121c-0.28,0.041-0.28,0.041-0.439,0.164c-0.242-0.082-0.242-0.123-0.322-0.123
		c-0.359-0.082-0.16,0.041-1.121-0.205c0.08-0.285,0.199-0.572,0.32-0.94c0.159-0.53,0.641-2.537,0.24-3.026
		c-0.521-0.492-1.805,1.392-1.645,1.678C103.729,36.7,104.17,36.209,104.33,36.129z M130.236,33.632
		c0.08-0.451,0.119-0.368,0.32-0.655c0.161-0.327,0.08-0.327,0.401-0.491c0.521-0.285,0.562-0.695,1.163-0.572
		c-0.081,0.367-0.161,0.287-0.361,0.492C131.32,32.813,130.798,33.592,130.236,33.632z M113.675,36.372
		c0.2-1.473-0.081-1.84-0.521-3.067c-0.28-0.776-0.762-1.76-1.484-2.251c-0.762-0.491-1.563-0.9-2.727-0.941
		c-0.642,0-0.963-0.164-1.685,0c-0.522,0.082-1.122,0.122-1.563,0.286c-0.28,0.123-0.441,0.082-0.684,0.247
		c-0.561,0.327-1.08,0.694-1.523,1.227c-0.521,0.613-1.161,1.31-1.563,2.168c-0.08,0.166-0.4,1.188-0.441,1.393
		c-0.08,0.615,0.082,1.721,0.521,2.251l1.364,1.351c-0.121,0.492-0.884,2.129-1.163,2.498c-0.4-0.082-0.563-0.123-0.963,0.039
		c-0.04,0.287,0.039,1.556,0.439,1.719c0.684,0.082,0.724-0.449,1.084-0.775c0.521-0.041,0.883,0.122,1.322,0.164
		c0.563,0.08,1.967-0.205,2.607-0.328c1.242-0.287,2.486-0.531,3.607-1.023c0.764-0.328,1.284-0.817,1.846-1.351
		c0.121-0.122,0.562-0.653,0.643-0.858c0.359-0.655,0.439-1.679,1.123-2.006c0.12-0.041,0.16-0.041,0.238-0.123
		c0.322-0.244,0.482-0.244,0.804-0.449l1.765-1.311c0.2-0.205,0.12-0.205,0.361-0.367c0.24-0.164,0.24-0.164,0.439-0.369
		c0.281-0.203,0.643-0.654,0.885-0.776c-0.082,0.694-0.563,1.432-0.965,1.964l-0.682,0.777c-0.24,0.326-0.4,0.492-0.521,0.94
		c-0.12,0.491-0.481,0.941-0.24,1.474c0.882,0.164,0.683-0.409,1.163-0.776c0.359-0.328,0.684-0.655,0.842-1.146
		c0.201-0.574,0.402-0.369,0.402-0.982l0.398-0.164c0.121-0.491,0.082-0.614,0.441-0.859c0.762,0.123,0.723,0.736,0.723,1.555
		c-0.041,1.843,1.965,1.802,3.93-0.122c1.283,0.286,1.765-0.164,2.646-0.859l0.361-0.204c0.281,0.368,0.361,0.368,1.004,0.286
		l1.202-0.204c0.321-0.082,0.562-0.326,0.883-0.49c0.2-0.082,0.762-0.082,1.083-0.123c0.279-0.328,0.08-0.328,0.521-0.49
		c0.32-0.124,0.359-0.205,0.521-0.451c0.44-0.04,0.36,0.123,0.882,0.204c0.241-0.122,0.602-0.244,0.883-0.368
		c0.32,0.328,0.401,0.164,0.682,0.082c0.121-0.04,0.16,0.042,0.402,0c0.24-0.9,0.439-0.735,0.762-1.391
		c0.24-0.491,0.44-1.106,0.882-1.393c0.241-0.164,0.161,0,0.481-0.206c0.319-0.244,0.039-0.244,0.48-0.286
		c-0.04,0.984-0.602,1.556,0.119,2.251h0.041h0.199c0.441,0.041,0.522-0.082,0.924-0.328c0.16-0.082,0.359-0.123,0.602-0.246
		c0.281-0.121,0.36-0.246,0.563-0.367c0.319,0.162,0.16,0.203,0.48,0.328c0.16,0.08,0.08,0,0.28,0.121
		c0.44,0.246,0.321,0,0.722,0.082c0.24,0.041-0.041,0.123,0.321-0.082l0.04-0.735c-0.321-0.287-0.762-0.247-1.164-0.532
		c0.24-0.654,1.363-1.596,1.283-2.496c-0.359-0.491-1.242-0.982-1.725-0.205c-0.119,0.246-0.279,0.695-0.4,0.982
		c-0.4,1.228-0.119,1.679-0.44,1.883c-0.121,0.082-0.16,0-0.241,0.042l-0.562,0.287c-0.039,0-0.24,0.162-0.24,0.162
		c-0.12-0.613,0.121-0.654,0.121-1.063c0-0.369-0.281-0.696-0.362-0.941c-0.881-0.042-0.881,0.122-1.481,0.246
		c-0.521-1.146-1.203,0.778-1.646,1.432c-0.763,1.023-0.441,1.311-1.926,1.72c0.041-0.409,0.803-1.393,0.4-2.006
		c-0.119-0.082-1.362-0.287-1.644-0.164l-0.563,0.408c-0.36,0.369,0.041,0.164-0.561,0.41c-1.083,0.491-1.402,1.514-1.244,2.577
		c-0.479,0.369-0.199,0.246-0.881,0.328c-0.361,0.041-0.603,0.205-1.043,0.205c0.119-1.352,1.604-1.515,1.323-2.25
		c-0.081-0.205-0.201-0.205-0.44-0.164c-0.121,0-0.201,0.041-0.281,0.041c-0.521,0.041,0.119-0.41-0.881-0.9
		c-0.684-0.369-2.207,0.245-1.484,1.188c0.158,0.203,0.199,0.285,0.4,0.367c0.239,0.082,0.481,0.082,0.722,0.164
		c0,0.409-0.2,0.573-0.32,0.859c-0.521,1.146-0.479,0.777-1.163,1.187c-0.32,0.205-0.521,0.286-0.922,0.327
		c0.04-0.654,0.439-0.736,0.4-1.596c0-0.899-0.481-0.368-0.963-0.941c-0.24-0.04-0.562-0.04-0.801,0
		c-0.281,0-0.804,0.368-1.005,0.533c-0.521,0.613-0.842,1.432-1.081,2.169c-0.121,0.448-0.281,0.654-0.121,1.104
		c-0.24-0.205-0.08-1.188-0.32-1.842c-0.16-0.531-0.723-0.777-1.202-0.94c0.358-1.104,1.002-2.415,1.442-3.437
		c0.28-0.575,0.562-1.146,0.683-1.802c0.12-0.654,0.683-1.31,0.239-1.924c-0.44-0.041-0.521,0.123-0.682,0.41l-0.882,2.333
		c-0.36,1.227-1.323,2.455-2.206,3.314c-0.158,0.203-0.4,0.327-0.563,0.531c-0.198,0.205-0.279,0.369-0.479,0.573l-1.563,1.228
		C114.958,35.555,114.116,36.209,113.675,36.372z"/>
	<linearGradient id="SVGID_1_" gradientUnits="userSpaceOnUse" x1="53.5698" y1="48.7441" x2="54.604" y2="48.7441">
		<stop  offset="0" style="stop-color:#FFFFFF"/>
		<stop  offset="1" style="stop-color:#000000"/>
	</linearGradient>
	<path fill="url(#SVGID_1_)" d="M54.523,48.569c-0.321-0.41,0-0.164-0.241-0.41c-0.361-0.325-1.083,0.123-0.481,1.27
		c0.481,0.041,0.762-0.286,0.803-0.695C54.563,48.61,54.523,48.61,54.523,48.569z"/>
	<linearGradient id="SVGID_2_" gradientUnits="userSpaceOnUse" x1="25.1689" y1="53.5879" x2="25.4678" y2="53.5879">
		<stop  offset="0" style="stop-color:#FFFFFF"/>
		<stop  offset="1" style="stop-color:#000000"/>
	</linearGradient>
	<path fill="url(#SVGID_2_)" d="M25.449,53.726c0.081-0.328-0.12-0.369-0.28-0.164C25.249,53.726,25.208,53.766,25.449,53.726z"/>
</g>
</svg>
