<!DOCTYPE svg PUBLIC "-//W3C//DTD SVG 1.1//EN" "http://www.w3.org/Graphics/SVG/1.1/DTD/svg11.dtd" [
	<!ENTITY ns_flows "http://ns.adobe.com/Flows/1.0/">
]><svg xmlns="http://www.w3.org/2000/svg" width="26" height="26" viewBox="0 0 26 26" overflow="visible"><path fill-rule="evenodd" clip-rule="evenodd" fill="#141414" d="M19.508 18.486c1.724-1.962 2.777-4.527 2.777-7.344 0-6.153-4.988-11.142-11.142-11.142-6.154 0-11.143 4.989-11.143 11.143 0 6.154 4.989 11.144 11.143 11.144 2.817 0 5.382-1.054 7.344-2.777l6.491 6.492 1.022-1.023-6.492-6.493zm-8.365 2.314c-5.334 0-9.657-4.323-9.657-9.657 0-5.333 4.323-9.657 9.657-9.657 5.333 0 9.657 4.324 9.657 9.657 0 5.334-4.323 9.657-9.657 9.657z"/></svg>