<svg xmlns="http://www.w3.org/2000/svg" width="26" height="26" viewBox="0 0 26 26"><path fill-rule="evenodd" clip-rule="evenodd" fill="#fff" d="M26 24.977l-1.021 1.023-6.492-6.492c-1.961 1.724-4.526 2.777-7.344 2.777-6.154 0-11.143-4.99-11.143-11.143 0-6.153 4.989-11.142 11.143-11.142 6.154 0 11.143 4.989 11.143 11.142 0 2.817-1.053 5.382-2.776 7.344l6.49 6.491zm-5.2-13.835c0-5.333-4.323-9.657-9.657-9.657-5.333 0-9.657 4.324-9.657 9.657s4.324 9.657 9.657 9.657c5.334-.001 9.657-4.324 9.657-9.657z"/></svg>